<svg xmlns="http://www.w3.org/2000/svg" width="101.829" height="72.337" viewBox="0 0 101.829 72.337">
  <g id="logo" transform="translate(-40.98 13)">
    <g id="Raggruppa_339" data-name="Raggruppa 339" transform="translate(40.98 40.223)">
      <path id="Tracciato_1064" data-name="Tracciato 1064" d="M185.9,58.977V50.1h1.088v7.891h5.2v.986H185.9Z" transform="translate(-185.9 -49.964)" fill="#736357"/>
      <path id="Tracciato_1065" data-name="Tracciato 1065" d="M222.7,58.977h-1.122l-.816-2.075h-4.694l-.816,2.075H214.1l3.673-8.877h1.258Zm-6.292-2.959h4.013l-2.007-4.762Z" transform="translate(-204.509 -49.964)" fill="#736357"/>
      <path id="Tracciato_1066" data-name="Tracciato 1066" d="M260.465,58.977h-1.122l-6.054-7.244v7.244H252.2V50.1h1.122l6.054,7.278V50.1h1.088Z" transform="translate(-229.651 -49.964)" fill="#736357"/>
      <path id="Tracciato_1067" data-name="Tracciato 1067" d="M296.439,50.1a4.119,4.119,0,0,1,4.489,4.455c0,2.721-1.53,4.421-4.489,4.421H292.8V50.1Zm-2.551.986v6.9h2.483c2.313,0,3.435-1.258,3.435-3.435a3.127,3.127,0,0,0-3.435-3.469Z" transform="translate(-256.442 -49.964)" fill="#736357"/>
      <path id="Tracciato_1068" data-name="Tracciato 1068" d="M331.711,54.462c-1.19-.374-2.211-.952-2.211-2.211,0-1.565,1.19-2.551,3.163-2.551a7.348,7.348,0,0,1,2.619.476l-.1.986a6.393,6.393,0,0,0-2.415-.51c-1.292,0-2.109.51-2.109,1.462,0,.918.782,1.122,1.564,1.394l1.394.442c1.462.476,2.143,1.122,2.143,2.313,0,1.53-1.258,2.551-3.2,2.551A7.792,7.792,0,0,1,329.5,58.2l.1-1.02a7.179,7.179,0,0,0,2.857.646c1.292,0,2.143-.544,2.143-1.53,0-.714-.408-1.088-1.394-1.394Z" transform="translate(-280.66 -49.7)" fill="#736357"/>
      <path id="Tracciato_1069" data-name="Tracciato 1069" d="M365.234,58.849c-2.993,0-5.034-1.871-5.034-4.591s2.007-4.557,4.966-4.557a6.385,6.385,0,0,1,2.687.544l-.1,1.02a6.108,6.108,0,0,0-2.585-.544,3.488,3.488,0,0,0-3.809,3.537c0,2.109,1.633,3.537,3.979,3.537a5.325,5.325,0,0,0,2.517-.578l.17,1.02A5.755,5.755,0,0,1,365.234,58.849Z" transform="translate(-300.919 -49.7)" fill="#736357"/>
      <path id="Tracciato_1070" data-name="Tracciato 1070" d="M402.2,58.977h-1.122l-.816-2.075h-4.694l-.816,2.075H393.6l3.673-8.877h1.258Zm-6.292-2.959h4.013l-2.007-4.762Z" transform="translate(-322.959 -49.964)" fill="#736357"/>
      <path id="Tracciato_1071" data-name="Tracciato 1071" d="M432.788,56.188v2.789H431.7V50.1h3.911a2.861,2.861,0,0,1,3.095,3.061,2.945,2.945,0,0,1-3.095,3.027Zm0-.952h2.721a2,2,0,0,0,2.109-2.041,1.935,1.935,0,0,0-2.109-2.075h-2.721Z" transform="translate(-348.101 -49.964)" fill="#736357"/>
      <path id="Tracciato_1072" data-name="Tracciato 1072" d="M466.2,58.977V50.1h6.36v.986h-5.306v2.857h4.591v.986h-4.591v3.095H472.7v.986h-6.5Z" transform="translate(-370.867 -49.964)" fill="#736357"/>
      <path id="Tracciato_1073" data-name="Tracciato 1073" d="M230.386,94.669v1.462H229.4V91.2h2.279a1.677,1.677,0,0,1,1.8,1.735,1.716,1.716,0,0,1-1.8,1.735Zm0-2.619v1.769h1.19a.858.858,0,0,0,.884-.884.821.821,0,0,0-.884-.884Z" transform="translate(-214.605 -77.085)" fill="#736357"/>
      <path id="Tracciato_1074" data-name="Tracciato 1074" d="M251.207,95.145h-2.279l-.374.952H247.5l1.973-4.9h1.122l1.973,4.9h-1.054ZM249.2,94.4h1.735l-.85-2.143Z" transform="translate(-226.549 -77.085)" fill="#736357"/>
      <path id="Tracciato_1075" data-name="Tracciato 1075" d="M272.809,94.669h-1.122v1.462H270.7V91.2h2.279a1.725,1.725,0,0,1,.85,3.265l1.292,1.633h-1.19Zm-1.122-2.619v1.769h1.19a.858.858,0,0,0,.884-.884.821.821,0,0,0-.884-.884Z" transform="translate(-241.859 -77.085)" fill="#736357"/>
      <path id="Tracciato_1076" data-name="Tracciato 1076" d="M292.13,92.084H290.6V91.2h4.047v.884h-1.53v4.047h-.986Z" transform="translate(-254.991 -77.085)" fill="#736357"/>
      <path id="Tracciato_1077" data-name="Tracciato 1077" d="M311.786,96.132H310.8V91.2h.884l2.823,3.367V91.2h.986v4.9h-.884l-2.823-3.333Z" transform="translate(-268.32 -77.085)" fill="#736357"/>
      <path id="Tracciato_1078" data-name="Tracciato 1078" d="M337.807,96.132H334.1V91.2h3.639v.85h-2.653v1.122H337.4v.85h-2.313v1.258h2.721Z" transform="translate(-283.696 -77.085)" fill="#736357"/>
      <path id="Tracciato_1079" data-name="Tracciato 1079" d="M356.409,94.669h-1.122v1.462H354.3V91.2h2.279a1.725,1.725,0,0,1,.85,3.265l1.292,1.633h-1.19Zm-1.122-2.619v1.769h1.19a.858.858,0,0,0,.884-.884.821.821,0,0,0-.884-.884Z" transform="translate(-297.026 -77.085)" fill="#736357"/>
      <path id="Tracciato_1080" data-name="Tracciato 1080" d="M378.469,91.362l-.068.884a3.724,3.724,0,0,0-1.428-.306c-.544,0-.918.17-.918.578s.34.476.68.578l.714.2c.816.238,1.258.578,1.258,1.326,0,.884-.748,1.5-1.871,1.5a4.194,4.194,0,0,1-1.8-.374l.068-.884a4.473,4.473,0,0,0,1.667.374c.51,0,.918-.17.918-.578,0-.306-.17-.442-.612-.544l-.782-.2c-.612-.17-1.292-.51-1.292-1.326,0-.918.714-1.5,1.871-1.5A3.378,3.378,0,0,1,378.469,91.362Z" transform="translate(-310.685 -77.009)" fill="#736357"/>
      <path id="Tracciato_1081" data-name="Tracciato 1081" d="M399.053,96.132h-.986V94.057h-2.381v2.075H394.7V91.2h.986v1.973h2.381V91.2h.986Z" transform="translate(-323.685 -77.085)" fill="#736357"/>
      <path id="Tracciato_1082" data-name="Tracciato 1082" d="M418.086,96.132H417.1V91.2h.986Z" transform="translate(-338.467 -77.085)" fill="#736357"/>
      <path id="Tracciato_1083" data-name="Tracciato 1083" d="M430.586,94.669v1.462H429.6V91.2h2.279a1.677,1.677,0,0,1,1.8,1.735,1.716,1.716,0,0,1-1.8,1.735Zm0-2.619v1.769h1.19a.858.858,0,0,0,.884-.884.821.821,0,0,0-.884-.884Z" transform="translate(-346.715 -77.085)" fill="#736357"/>
    </g>
    <g id="Raggruppa_340" data-name="Raggruppa 340" transform="translate(67.1 -13)">
      <path id="Tracciato_1084" data-name="Tracciato 1084" d="M39.541,13.564l2.381,2.381L50.968,6.83,57.6,13.5,37.5,33.868v4.625L62.328,13.53,62.26,13.5l.068-.068L50.866,2,39.337,13.428" transform="translate(-26.14 -2)" fill="#6d97bf"/>
      <path id="Tracciato_1085" data-name="Tracciato 1085" d="M67.966,60.5,79.292,49.17l-.034-.034.034-.068L67.9,37.709l-2.381,2.347,9.047,9.081-6.632,6.632L47.866,35.736,42.9,35.6l25,24.9.034-.068Z" transform="translate(-29.704 -24.172)" fill="#9baf50"/>
      <path id="Tracciato_1086" data-name="Tracciato 1086" d="M54.394,77.96,65.821,66.5l-2.381-2.381L54.36,73.232,47.694,66.6,68,46.33,67.93,41.5,43,66.566l.034.034L43,66.634,54.292,77.96" transform="translate(-29.77 -28.066)" fill="#febc30"/>
      <path id="Tracciato_1087" data-name="Tracciato 1087" d="M15.392,42.4,4.1,53.726l.034.034-.034.034,11.36,11.36V60.528L8.794,53.76l6.632-6.632,19.93,19.9,4.864-.034L15.494,42.4l-.068.068Z" transform="translate(-4.1 -28.66)" fill="#dd733e"/>
      <path id="Tracciato_1088" data-name="Tracciato 1088" d="M47.345,29.4,31.7,45.045,47.311,60.656,62.922,45.045ZM36.53,45.045,47.447,34.128,58.331,45.045,47.413,55.963Z" transform="translate(-22.313 -20.081)" fill="#8e6747"/>
      <rect id="Rettangolo_1573" data-name="Rettangolo 1573" width="7.652" height="3.401" transform="translate(15.811 35.88) rotate(-45)" fill="#febc30"/>
      <rect id="Rettangolo_1574" data-name="Rettangolo 1574" width="7.652" height="3.367" transform="translate(14.932 17.33) rotate(45)" fill="#dd733e"/>
      <rect id="Rettangolo_1575" data-name="Rettangolo 1575" width="12.686" height="3.367" transform="translate(31.602 24.942) rotate(45)" fill="#9baf50"/>
      <rect id="Rettangolo_1576" data-name="Rettangolo 1576" width="7.652" height="3.333" transform="translate(33.661 14.044) rotate(135)" fill="#6d97bf"/>
    </g>
  </g>
</svg>
