<svg xmlns="http://www.w3.org/2000/svg" width="110.718" height="34.225" viewBox="0 0 110.718 34.225">
  <g id="logo-bobscapes" transform="translate(-8.285 -2.087)">
    <g id="Raggruppa_330" data-name="Raggruppa 330" transform="translate(38.06 10.104)">
      <path id="Tracciato_977" data-name="Tracciato 977" d="M375.308,102.6h2.483c.365,0,.746.016,1.136.041a7.612,7.612,0,0,1,1.144.162,4.838,4.838,0,0,1,1.063.365,2.866,2.866,0,0,1,.876.649,3.071,3.071,0,0,1,.6,1.006,4.226,4.226,0,0,1,.219,1.444v.787a3.663,3.663,0,0,1-.187,1.184,3.491,3.491,0,0,1-.487.949,2.888,2.888,0,0,1-.69.681,2.411,2.411,0,0,1-.8.365v.073a2.615,2.615,0,0,1,1.809,1.144,4.216,4.216,0,0,1,.608,2.361v.828a5.32,5.32,0,0,1-.195,1.525,3.467,3.467,0,0,1-.544,1.111,2.958,2.958,0,0,1-.836.755,4.48,4.48,0,0,1-1.063.462,6.394,6.394,0,0,1-1.233.227c-.438.041-.884.065-1.347.065H375.3V102.6Zm2.88,6.92a3.18,3.18,0,0,0,.9-.122,1.865,1.865,0,0,0,.7-.373,1.6,1.6,0,0,0,.446-.657,2.666,2.666,0,0,0,.154-.974v-.665a4.141,4.141,0,0,0-.114-1.006,1.816,1.816,0,0,0-.373-.738,1.591,1.591,0,0,0-.681-.462,2.964,2.964,0,0,0-1.03-.154h-.471V109.5h.471Zm.227,7.545a2.824,2.824,0,0,0,.892-.13,1.877,1.877,0,0,0,.69-.4,1.723,1.723,0,0,0,.446-.69,2.772,2.772,0,0,0,.154-.982v-1.257a4.14,4.14,0,0,0-.114-1.006,1.767,1.767,0,0,0-.373-.738,1.6,1.6,0,0,0-.673-.454,2.885,2.885,0,0,0-1.022-.154h-.7v5.817h.7Z" transform="translate(-375.3 -102.462)" fill="#fff"/>
      <path id="Tracciato_978" data-name="Tracciato 978" d="M496.124,117.445a6.391,6.391,0,0,1-.844-.065,3.431,3.431,0,0,1-.9-.26,3.254,3.254,0,0,1-.86-.56,3.348,3.348,0,0,1-.73-.957,5.543,5.543,0,0,1-.5-1.468,9.793,9.793,0,0,1-.187-2.085v-5.728a9.639,9.639,0,0,1,.195-2.085,5.567,5.567,0,0,1,.519-1.46,3.29,3.29,0,0,1,.73-.941,3.146,3.146,0,0,1,.86-.535,3.759,3.759,0,0,1,.892-.243,6.083,6.083,0,0,1,.828-.057,7.434,7.434,0,0,1,.8.049,3.641,3.641,0,0,1,.884.227,3.329,3.329,0,0,1,.86.519,3.071,3.071,0,0,1,.738.941,5.827,5.827,0,0,1,.519,1.468,9.907,9.907,0,0,1,.195,2.117v5.711a9.011,9.011,0,0,1-.2,2.069,6.064,6.064,0,0,1-.519,1.468,3.284,3.284,0,0,1-.746.965,3.841,3.841,0,0,1-.86.568,3.022,3.022,0,0,1-.876.268A4.982,4.982,0,0,1,496.124,117.445Zm0-1.85a1.545,1.545,0,0,0,.633-.122,1.029,1.029,0,0,0,.446-.43,2.732,2.732,0,0,0,.268-.8,7.577,7.577,0,0,0,.089-1.258v-7.358a8.193,8.193,0,0,0-.089-1.3,2.466,2.466,0,0,0-.268-.836.987.987,0,0,0-.446-.446,1.4,1.4,0,0,0-.633-.13,1.435,1.435,0,0,0-.641.13,1.044,1.044,0,0,0-.454.446,2.469,2.469,0,0,0-.268.836,8.2,8.2,0,0,0-.089,1.3v7.358a7.651,7.651,0,0,0,.089,1.258,2.33,2.33,0,0,0,.268.8,1.048,1.048,0,0,0,.454.43A1.557,1.557,0,0,0,496.124,115.6Z" transform="translate(-482.624 -100.992)" fill="#fff"/>
      <path id="Tracciato_979" data-name="Tracciato 979" d="M619.308,102.6h2.483c.365,0,.746.016,1.136.041a7.617,7.617,0,0,1,1.144.162,4.839,4.839,0,0,1,1.063.365,2.866,2.866,0,0,1,.876.649,3.073,3.073,0,0,1,.6,1.006,4.226,4.226,0,0,1,.219,1.444v.787a3.661,3.661,0,0,1-.187,1.184,3.493,3.493,0,0,1-.487.949,2.89,2.89,0,0,1-.69.681,2.412,2.412,0,0,1-.8.365v.073a2.616,2.616,0,0,1,1.809,1.144,4.217,4.217,0,0,1,.608,2.361v.828a5.316,5.316,0,0,1-.195,1.525,3.463,3.463,0,0,1-.544,1.111,2.959,2.959,0,0,1-.836.755,4.482,4.482,0,0,1-1.063.462,6.394,6.394,0,0,1-1.233.227c-.438.041-.884.065-1.347.065H619.3V102.6Zm2.88,6.92a3.181,3.181,0,0,0,.9-.122,1.865,1.865,0,0,0,.7-.373,1.6,1.6,0,0,0,.446-.657,2.666,2.666,0,0,0,.154-.974v-.665a4.134,4.134,0,0,0-.114-1.006,1.812,1.812,0,0,0-.373-.738,1.591,1.591,0,0,0-.681-.462,2.965,2.965,0,0,0-1.03-.154h-.471V109.5h.471Zm.227,7.545a2.824,2.824,0,0,0,.892-.13,1.876,1.876,0,0,0,.69-.4,1.723,1.723,0,0,0,.446-.69,2.772,2.772,0,0,0,.154-.982v-1.257a4.133,4.133,0,0,0-.114-1.006,1.765,1.765,0,0,0-.373-.738,1.6,1.6,0,0,0-.673-.454,2.885,2.885,0,0,0-1.022-.154h-.7v5.817h.7Z" transform="translate(-599.505 -102.462)" fill="#fff"/>
      <path id="Tracciato_980" data-name="Tracciato 980" d="M733.9,113.929a6.928,6.928,0,0,1,.065-.957c.041-.292.106-.608.187-.949h1.907v.787a6.925,6.925,0,0,0,.081,1.152,2.79,2.79,0,0,0,.268.844,1.226,1.226,0,0,0,.495.519,1.526,1.526,0,0,0,.754.178,1.425,1.425,0,0,0,1.071-.381A1.579,1.579,0,0,0,739.1,114a4.637,4.637,0,0,0-.049-.7,3.086,3.086,0,0,0-.179-.633,4.328,4.328,0,0,0-.349-.657,9.271,9.271,0,0,0-.56-.771l-2.556-3.042a8.052,8.052,0,0,1-1.055-1.752,4.911,4.911,0,0,1-.373-1.89,4.119,4.119,0,0,1,.251-1.477,3.341,3.341,0,0,1,.722-1.16,3.229,3.229,0,0,1,1.168-.755,4.356,4.356,0,0,1,1.574-.268,4.583,4.583,0,0,1,1.785.3,3.1,3.1,0,0,1,1.144.8,2.827,2.827,0,0,1,.6,1.1,4.568,4.568,0,0,1,.178,1.225,5.013,5.013,0,0,1-.081.957c-.057.292-.114.617-.187.974h-1.89v-.771a4.15,4.15,0,0,0-.373-1.971,1.269,1.269,0,0,0-1.2-.69,1.317,1.317,0,0,0-1.03.381,1.5,1.5,0,0,0-.341,1.03,3.572,3.572,0,0,0,.049.617,2.274,2.274,0,0,0,.154.5,2.38,2.38,0,0,0,.243.446c.1.146.2.3.325.454l2.848,3.448a9.554,9.554,0,0,1,1.193,1.947,4.829,4.829,0,0,1,.414,1.971,4.221,4.221,0,0,1-.268,1.55,3.26,3.26,0,0,1-.771,1.176,3.455,3.455,0,0,1-1.209.746,4.5,4.5,0,0,1-1.6.26,4.945,4.945,0,0,1-1.825-.292,2.949,2.949,0,0,1-1.152-.779,2.918,2.918,0,0,1-.608-1.1A3.876,3.876,0,0,1,733.9,113.929Z" transform="translate(-704.807 -100.9)" fill="#fff"/>
      <path id="Tracciato_981" data-name="Tracciato 981" d="M851.443,117.445a6.045,6.045,0,0,1-.819-.065,3.411,3.411,0,0,1-.884-.26,3.181,3.181,0,0,1-.844-.56,3.469,3.469,0,0,1-.714-.957,5.857,5.857,0,0,1-.495-1.468,10.352,10.352,0,0,1-.187-2.085v-5.728a10.238,10.238,0,0,1,.187-2.085,5.9,5.9,0,0,1,.5-1.46,3.141,3.141,0,0,1,.722-.941,3.076,3.076,0,0,1,.844-.535,3.483,3.483,0,0,1,.868-.243,5.662,5.662,0,0,1,.8-.057,4.251,4.251,0,0,1,1.615.268,2.682,2.682,0,0,1,1.038.738,2.865,2.865,0,0,1,.56,1.1,5.007,5.007,0,0,1,.162,1.322,8.665,8.665,0,0,1-.049.957c-.032.292-.089.617-.154.974h-1.988v-.828a5.171,5.171,0,0,0-.292-2,.945.945,0,0,0-.86-.665,1.284,1.284,0,0,0-.6.13,1.042,1.042,0,0,0-.43.446,2.674,2.674,0,0,0-.26.836,8.19,8.19,0,0,0-.089,1.3v7.383a8.971,8.971,0,0,0,.073,1.258,2.362,2.362,0,0,0,.235.8.94.94,0,0,0,.422.43,1.353,1.353,0,0,0,.633.13.986.986,0,0,0,.836-.446,1.772,1.772,0,0,0,.268-.584,3.193,3.193,0,0,0,.1-.836v-1.582h2.247v1.493A4.041,4.041,0,0,1,854,116.5,3.417,3.417,0,0,1,851.443,117.445Z" transform="translate(-809.191 -100.992)" fill="#fff"/>
      <path id="Tracciato_982" data-name="Tracciato 982" d="M950.585,102.6h2.823l2.994,16.169H953.92l-.446-2.9h-2.953l-.43,2.9H947.6Zm2.6,11.431-1.136-8.056h-.106l-1.144,8.056Z" transform="translate(-901.17 -102.462)" fill="#fff"/>
      <path id="Tracciato_983" data-name="Tracciato 983" d="M1075.3,102.6h2.45c.308,0,.649.016,1.014.041a5.346,5.346,0,0,1,1.111.2,4.058,4.058,0,0,1,1.071.479,3.224,3.224,0,0,1,.917.876,4.571,4.571,0,0,1,.641,1.387,7.3,7.3,0,0,1,.243,2.028v.568a9.75,9.75,0,0,1-.219,2.223,5.617,5.617,0,0,1-.592,1.55,3.415,3.415,0,0,1-.86,1.006,3.864,3.864,0,0,1-1.014.576,4.957,4.957,0,0,1-1.063.26,8.942,8.942,0,0,1-1.006.065h-.235v4.925h-2.45L1075.3,102.6Zm2.572,9.452a2.88,2.88,0,0,0,1.12-.195,1.6,1.6,0,0,0,.722-.608,2.91,2.91,0,0,0,.389-1.063,8.539,8.539,0,0,0,.122-1.558v-1.46a6.16,6.16,0,0,0-.105-1.241,2.076,2.076,0,0,0-.373-.868,1.554,1.554,0,0,0-.722-.5,3.287,3.287,0,0,0-1.144-.162h-.122v7.659Z" transform="translate(-1018.51 -102.462)" fill="#fff"/>
      <path id="Tracciato_984" data-name="Tracciato 984" d="M1189.9,102.6h6v1.931h-3.537v4.835h2.734V111.3h-2.734v5.541h3.635v1.931h-6.085V102.6Z" transform="translate(-1123.812 -102.462)" fill="#fff"/>
      <path id="Tracciato_985" data-name="Tracciato 985" d="M1279,113.929a6.908,6.908,0,0,1,.065-.957c.041-.292.106-.608.187-.949h1.906v.787a6.94,6.94,0,0,0,.081,1.152,2.79,2.79,0,0,0,.268.844,1.226,1.226,0,0,0,.495.519,1.525,1.525,0,0,0,.754.178,1.426,1.426,0,0,0,1.071-.381,1.581,1.581,0,0,0,.373-1.12,4.63,4.63,0,0,0-.049-.7,3.074,3.074,0,0,0-.178-.633,4.362,4.362,0,0,0-.349-.657,9.257,9.257,0,0,0-.56-.771l-2.556-3.042a8.047,8.047,0,0,1-1.055-1.752,4.911,4.911,0,0,1-.373-1.89,4.123,4.123,0,0,1,.251-1.477,3.337,3.337,0,0,1,.722-1.16,3.23,3.23,0,0,1,1.168-.755,4.356,4.356,0,0,1,1.574-.268,4.583,4.583,0,0,1,1.785.3,3.1,3.1,0,0,1,1.144.8,2.831,2.831,0,0,1,.6,1.1,4.568,4.568,0,0,1,.178,1.225,5.008,5.008,0,0,1-.081.957c-.057.292-.114.617-.187.974h-1.89v-.771a4.153,4.153,0,0,0-.373-1.971,1.27,1.27,0,0,0-1.2-.69,1.317,1.317,0,0,0-1.03.381,1.5,1.5,0,0,0-.341,1.03,3.585,3.585,0,0,0,.049.617,2.267,2.267,0,0,0,.154.5,2.373,2.373,0,0,0,.243.446c.1.146.2.3.325.454l2.848,3.448a9.545,9.545,0,0,1,1.193,1.947,4.829,4.829,0,0,1,.414,1.971,4.22,4.22,0,0,1-.268,1.55,3.26,3.26,0,0,1-.771,1.176,3.455,3.455,0,0,1-1.209.746,4.5,4.5,0,0,1-1.6.26,4.944,4.944,0,0,1-1.825-.292,2.843,2.843,0,0,1-1.76-1.874A3.877,3.877,0,0,1,1279,113.929Z" transform="translate(-1205.683 -100.9)" fill="#fff"/>
    </g>
    <g id="Raggruppa_333" data-name="Raggruppa 333" transform="translate(8.285 2.087)">
      <g id="Raggruppa_332" data-name="Raggruppa 332" transform="translate(0 7.522)">
        <path id="Tracciato_1008" data-name="Tracciato 1008" d="M13.924,97.688a2.371,2.371,0,0,1-1.241-2.807.733.733,0,0,1-.073-.081h-.089A4.746,4.746,0,0,0,8.3,97.38a.177.177,0,0,0,.2.252A4.742,4.742,0,0,1,13.754,99.4a4.7,4.7,0,0,0,.178-1.306A2.244,2.244,0,0,0,13.924,97.688Z" transform="translate(-8.285 -94.8)" fill="#2c2c2c"/>
        <path id="Tracciato_1009" data-name="Tracciato 1009" d="M19.268,163.194a.169.169,0,0,0-.008.243.215.215,0,0,0,.049.041,9.367,9.367,0,0,1,1.347.8,4.7,4.7,0,0,0,2.677-2.263A4.728,4.728,0,0,0,19.268,163.194Z" transform="translate(-18.325 -156.493)" fill="#2c2c2c"/>
      </g>
      <path id="Tracciato_1010" data-name="Tracciato 1010" d="M74.822,314.149c-.13-.284-.26-.576-.389-.868.016.227-.122.3-.325.073a9.468,9.468,0,0,0-15.763,2.3c-.195.422-.4.325-.308-.154a29.643,29.643,0,0,0-.479,3.042.727.727,0,0,0,.649.8.742.742,0,0,0,.471-.114,25.157,25.157,0,0,1,13.784-4.1c.6,0,1.193.024,1.777.065.4.032.625-.276.649-.673A.627.627,0,0,0,74.822,314.149Z" transform="translate(-53.556 -285.112)" fill="#a84e47"/>
      <path id="Tracciato_1011" data-name="Tracciato 1011" d="M68.145,8.53h0a.345.345,0,0,0,.089.016c.024.008.049.008.073.016a1.413,1.413,0,0,0,.178.041.03.03,0,0,1,.024.008c.073.016.146.041.219.057h0A9.589,9.589,0,0,1,71.2,9.779a.008.008,0,0,1,.008-.008A9.465,9.465,0,0,1,75.584,17.1a9.47,9.47,0,0,0-2.848-9.03,12.015,12.015,0,0,1,1.769-1.355.337.337,0,0,0,.105-.462.324.324,0,0,0-.381-.138,22.184,22.184,0,0,0-2.442.925,11.911,11.911,0,0,1,2.564-2.158.329.329,0,0,0-.276-.592,23.487,23.487,0,0,0-3.651,1.5A12.519,12.519,0,0,1,72.079,4.53a.337.337,0,0,0,.105-.462A.324.324,0,0,0,71.8,3.93a24.78,24.78,0,0,0-2.442.925A11.9,11.9,0,0,1,71.917,2.7a.329.329,0,0,0-.276-.592,23.705,23.705,0,0,0-7.164,3.708l-.008.008A9.406,9.406,0,0,0,61.2,9.69h0a9.471,9.471,0,0,1,4.916-1.379A9.3,9.3,0,0,1,68.145,8.53Z" transform="translate(-56.907 -2.087)" fill="#2c2c2c"/>
      <path id="Tracciato_1012" data-name="Tracciato 1012" d="M64.85,138.944l-.032.114a11.2,11.2,0,0,1-.422,1.55l-.024.065c-.016.049-.041.105-.057.154-.041.1-.073.2-.114.3-.024.081-.057.154-.081.235s-.057.154-.081.227-.057.17-.081.252l-.073.219c-.024.089-.057.17-.081.26-.024.073-.041.146-.065.211-.024.089-.049.17-.081.26A2.032,2.032,0,0,0,63.6,143l-.073.268c-.016.073-.041.146-.057.211l-.073.268c-.041.146-.073.3-.105.446-.016.081-.041.162-.057.243s-.041.162-.057.243c-.008.024-.008.041-.016.065s-.008.024-.008.041c-.089.479.114.576.308.154a9.469,9.469,0,0,1,15.763-2.3c.2.227.341.154.325-.073a.885.885,0,0,0-.065-.251,28.8,28.8,0,0,1-2.117-9.5c.008.138-.041.146-.057-.073-.016-.138-.032-.268-.049-.406-.008-.049-.016-.089-.024-.138-.016-.089-.024-.178-.041-.26-.008-.057-.024-.105-.032-.162-.016-.081-.032-.154-.049-.235-.016-.057-.024-.114-.041-.17a2.178,2.178,0,0,0-.057-.219c-.016-.057-.032-.114-.049-.178s-.041-.138-.057-.2-.041-.122-.057-.178-.041-.13-.065-.195a1.577,1.577,0,0,1-.065-.178c-.024-.065-.049-.122-.073-.187s-.049-.122-.073-.178a1.733,1.733,0,0,0-.081-.178,1.831,1.831,0,0,0-.089-.178c-.024-.057-.057-.114-.081-.17s-.065-.122-.1-.178-.057-.105-.089-.162a2.053,2.053,0,0,0-.105-.178,1.507,1.507,0,0,1-.089-.154c-.041-.057-.073-.122-.114-.178l-.1-.146-.122-.17c-.032-.049-.065-.1-.1-.138-.041-.057-.089-.114-.13-.17a1.482,1.482,0,0,0-.105-.13c-.049-.057-.089-.114-.138-.17-.032-.041-.073-.081-.105-.122l-.146-.17a1.451,1.451,0,0,0-.105-.114,1.533,1.533,0,0,0-.162-.162,1.3,1.3,0,0,0-.105-.105c-.057-.057-.114-.105-.17-.162a1.413,1.413,0,0,0-.114-.1c-.057-.057-.122-.105-.178-.154a1.091,1.091,0,0,0-.114-.089c-.065-.049-.122-.105-.187-.154a1.386,1.386,0,0,0-.114-.089l-.195-.146a.92.92,0,0,1-.105-.081c-.073-.049-.138-.1-.211-.146-.032-.024-.073-.049-.105-.073-.073-.049-.146-.089-.219-.138-.032-.024-.073-.041-.105-.065-.073-.049-.154-.089-.227-.13-.032-.016-.065-.041-.105-.057-.081-.041-.162-.089-.243-.13l-.1-.049c-.081-.041-.17-.081-.252-.122-.032-.016-.065-.024-.1-.041-.089-.041-.178-.073-.268-.114-.032-.008-.057-.024-.089-.032-.089-.032-.187-.073-.284-.105l-.081-.024-.292-.1a.251.251,0,0,0-.065-.016c-.105-.032-.211-.065-.316-.089a.511.511,0,0,0-.057-.016c-.114-.024-.219-.057-.333-.081-.008,0-.024-.008-.032-.008L69.5,124.3h0a1.316,1.316,0,0,1-.13.365,1.615,1.615,0,0,1-.414.5,2.071,2.071,0,0,1-2.547,0,1.615,1.615,0,0,1-.414-.5,1.728,1.728,0,0,1-.114-.284h0c-.089.016-.178.041-.26.057-.008,0-.016.008-.024.008l-.268.073a.585.585,0,0,0-.162.073.6.6,0,0,0-.195.828,2.368,2.368,0,0,0,1.915,1.1h0A4.73,4.73,0,0,1,68.03,135.8h0a4.733,4.733,0,0,0-3.2,3.229" transform="translate(-58.683 -114.385)" fill="#2c2c2c"/>
      <path id="Tracciato_1013" data-name="Tracciato 1013" d="M85.6,284.7" transform="translate(-79.327 -261.772)" fill="#2c2c2c"/>
      <path id="Tracciato_1014" data-name="Tracciato 1014" d="M53.188,91.275c0-.049-.008-.105-.008-.154-.008-.178-.016-.357-.016-.544v-.195c0-.178-.008-.349-.008-.527v-.049c0-.227,0-.446.008-.665v-.673A9.474,9.474,0,0,0,43.688,79a9.511,9.511,0,0,0-4.908,1.371l.016.016a2.354,2.354,0,0,0,.925,2.6.346.346,0,0,1,.1.089.76.76,0,0,1,.2.381.614.614,0,0,1,.008.122h0a4.726,4.726,0,0,1-.389,1.874.243.243,0,0,1-.032.065c-.016.041-.041.081-.057.13-.032.073-.073.138-.105.211A4.706,4.706,0,0,1,36.8,88.062a7.832,7.832,0,0,1,.763.608A9.484,9.484,0,0,1,40.629,97.4s-.008.114.024-.008a4.748,4.748,0,0,1,3.2-3.229h0a4.73,4.73,0,0,0-1.144-9.281h0a2.357,2.357,0,0,1-1.915-1.1.6.6,0,0,1,.195-.828.586.586,0,0,1,.162-.073l.268-.073c.008,0,.016-.008.024-.008.089-.024.17-.041.26-.057h0a1.222,1.222,0,0,0,.114.284,1.615,1.615,0,0,0,.414.5,2.071,2.071,0,0,0,2.547,0,1.615,1.615,0,0,0,.414-.5,1.4,1.4,0,0,0,.13-.365h0l.365.073c.008,0,.024.008.032.008.114.024.227.049.333.081a.522.522,0,0,0,.057.016c.105.024.211.057.316.089a.251.251,0,0,0,.065.016l.292.1.081.024c.1.032.187.065.284.105.032.008.057.024.089.032.089.032.178.073.268.114.032.016.065.024.1.041.089.041.17.081.251.122l.1.049c.081.041.162.081.243.13.032.016.065.041.105.057.081.041.154.089.227.13.032.024.073.041.105.065.073.049.146.089.219.138.032.024.073.049.105.073.073.049.138.1.211.146a.521.521,0,0,1,.105.081l.195.146a1.091,1.091,0,0,1,.114.089,1.712,1.712,0,0,1,.187.154,1.091,1.091,0,0,0,.114.089l.178.154c.041.032.073.065.114.1.057.057.114.105.17.162a1.294,1.294,0,0,1,.105.105l.162.162a1.45,1.45,0,0,0,.105.114l.146.17c.032.041.073.081.105.122.049.057.1.114.138.17l.105.13c.041.057.089.114.13.17s.065.089.1.138l.122.17.1.146c.041.057.073.114.114.178a1.507,1.507,0,0,1,.089.154c.032.057.073.114.105.178s.057.105.089.162.065.122.1.178a1.624,1.624,0,0,1,.081.17c.032.057.057.122.089.178a1.733,1.733,0,0,0,.081.178c.024.057.049.122.073.178s.049.122.073.187a1.58,1.58,0,0,1,.065.178,1.828,1.828,0,0,1,.065.195c.016.057.041.122.057.178a1.892,1.892,0,0,1,.057.2c.016.057.032.114.049.178a2.179,2.179,0,0,0,.057.219,1.3,1.3,0,0,1,.041.17c.016.073.032.154.049.235.008.057.024.105.032.162.016.089.032.178.041.26.008.049.016.089.024.138.016.13.032.268.049.406.016.219.049.276.065.17Zm-8.608-8.08a.7.7,0,0,1-.146.114c-.049.032-.105.065-.162.1a1.649,1.649,0,0,1-.779.187.881.881,0,0,1-.146-.008c-.016,0-.032-.008-.057-.008s-.057-.008-.089-.008a.153.153,0,0,1-.065-.016c-.024-.008-.049-.008-.073-.016l-.073-.024c-.016-.008-.041-.008-.057-.016s-.057-.024-.081-.032-.032-.008-.041-.016c-.032-.016-.057-.024-.089-.041-.008-.008-.024-.008-.032-.016a.545.545,0,0,1-.089-.057c-.008-.008-.016-.008-.024-.016a.847.847,0,0,1-.089-.065l-.008-.008-.008-.008c-.024-.024-.057-.049-.081-.073l-.008-.008a.807.807,0,0,1-.081-.089h0a1.1,1.1,0,0,1-.268-.657h0v-.041a1.356,1.356,0,0,1,1.46-1.209,1.529,1.529,0,0,1,1.314.673.49.49,0,0,0-.195.041c-.008,0-.008.008-.016.008l-.049.024a.008.008,0,0,0-.008.008.558.558,0,0,0-.105.089l-.008.008a.146.146,0,0,0-.041.057h0a.2.2,0,0,0-.032.057c0,.008-.008.008-.008.016-.008.024-.016.041-.024.065h0c-.008.024-.008.049-.016.065v.016c0,.024-.008.049-.008.073a.537.537,0,0,0,.519.535l-.049.073a1.781,1.781,0,0,1-.162.187A.181.181,0,0,1,44.58,83.194Z" transform="translate(-34.487 -72.76)" fill="#f5f5f5"/>
      <path id="Tracciato_1015" data-name="Tracciato 1015" d="M103.364,107.2a.225.225,0,0,1,.008-.073v-.016a.152.152,0,0,1,.016-.065h0c.008-.024.016-.041.024-.065,0-.008.008-.008.008-.016a.353.353,0,0,1,.032-.057h0c.016-.016.024-.041.041-.057l.008-.008a.56.56,0,0,1,.105-.089.008.008,0,0,0,.008-.008.243.243,0,0,1,.065-.032.558.558,0,0,1,.195-.041A1.518,1.518,0,0,0,102.56,106a1.346,1.346,0,0,0-1.46,1.209v.041h0a1.053,1.053,0,0,0,.268.657h0c.024.032.057.057.081.089l.008.008a.885.885,0,0,0,.089.081l.008.008a.621.621,0,0,0,.089.065c.008.008.016.008.024.016.032.016.057.041.089.057.008.008.024.008.032.016a.3.3,0,0,0,.089.041c.016.008.032.008.041.016.024.008.057.024.081.032s.041.008.057.016l.073.024c.024.008.049.008.073.016s.049.008.065.016a.332.332,0,0,0,.089.008c.016,0,.032.008.057.008.049,0,.1.008.146.008a1.649,1.649,0,0,0,.779-.187c.057-.032.114-.065.162-.1a1.779,1.779,0,0,0,.146-.114,1.39,1.39,0,0,0,.178-.2l.049-.073A.577.577,0,0,1,103.364,107.2Z" transform="translate(-93.57 -97.57)" fill="#2c2c2c"/>
    </g>
  </g>
</svg>
