<svg xmlns="http://www.w3.org/2000/svg" width="333.16" height="102.985" viewBox="0 0 333.16 102.985">
  <g id="logo-bobscapes" transform="translate(-8.285 -2.087)">
    <g id="Raggruppa_330" data-name="Raggruppa 330" transform="translate(97.882 26.21)">
      <path id="Tracciato_977" data-name="Tracciato 977" d="M375.324,102.6h7.47c1.1,0,2.246.049,3.418.122a22.916,22.916,0,0,1,3.442.488,14.561,14.561,0,0,1,3.2,1.1,8.624,8.624,0,0,1,2.637,1.953,9.24,9.24,0,0,1,1.806,3.027,12.714,12.714,0,0,1,.659,4.345V116a11.024,11.024,0,0,1-.561,3.564,10.508,10.508,0,0,1-1.465,2.856,8.693,8.693,0,0,1-2.075,2.051,7.254,7.254,0,0,1-2.392,1.1v.22a7.87,7.87,0,0,1,5.444,3.442,12.687,12.687,0,0,1,1.831,7.1v2.49a16.006,16.006,0,0,1-.586,4.59,10.429,10.429,0,0,1-1.636,3.344,8.9,8.9,0,0,1-2.514,2.27,13.487,13.487,0,0,1-3.2,1.392,19.241,19.241,0,0,1-3.711.684c-1.318.122-2.661.2-4.052.2H375.3V102.6Zm8.666,20.824a9.57,9.57,0,0,0,2.71-.366,5.612,5.612,0,0,0,2.1-1.123,4.825,4.825,0,0,0,1.343-1.977,8.019,8.019,0,0,0,.464-2.929v-2a12.456,12.456,0,0,0-.342-3.027,5.465,5.465,0,0,0-1.123-2.222,4.789,4.789,0,0,0-2.051-1.392,8.92,8.92,0,0,0-3.1-.464h-1.416v15.453h1.416Zm.684,22.7a8.5,8.5,0,0,0,2.685-.391,5.649,5.649,0,0,0,2.075-1.2,5.187,5.187,0,0,0,1.343-2.075,8.34,8.34,0,0,0,.464-2.954v-3.784a12.456,12.456,0,0,0-.342-3.027,5.314,5.314,0,0,0-1.123-2.222,4.812,4.812,0,0,0-2.026-1.367,8.682,8.682,0,0,0-3.076-.464h-2.1v17.5h2.1Z" transform="translate(-375.3 -102.185)" fill="#2c2c2c"/>
      <path id="Tracciato_978" data-name="Tracciato 978" d="M504.209,150.484a19.227,19.227,0,0,1-2.539-.2,10.316,10.316,0,0,1-2.71-.781,9.786,9.786,0,0,1-2.588-1.684,10.075,10.075,0,0,1-2.2-2.881,16.677,16.677,0,0,1-1.514-4.419,29.461,29.461,0,0,1-.561-6.274V117.015a29.006,29.006,0,0,1,.586-6.274,16.75,16.75,0,0,1,1.562-4.394,9.907,9.907,0,0,1,2.2-2.832,9.473,9.473,0,0,1,2.588-1.611,11.309,11.309,0,0,1,2.685-.732,18.3,18.3,0,0,1,2.49-.171,22.374,22.374,0,0,1,2.417.146,10.957,10.957,0,0,1,2.661.684,10.02,10.02,0,0,1,2.588,1.562,9.242,9.242,0,0,1,2.222,2.832,17.538,17.538,0,0,1,1.562,4.419,29.814,29.814,0,0,1,.586,6.372V134.2a27.115,27.115,0,0,1-.61,6.225,18.261,18.261,0,0,1-1.562,4.419,9.888,9.888,0,0,1-2.246,2.905,11.557,11.557,0,0,1-2.588,1.709,9.091,9.091,0,0,1-2.637.806A14.991,14.991,0,0,1,504.209,150.484Zm0-5.566a4.649,4.649,0,0,0,1.9-.366,3.1,3.1,0,0,0,1.343-1.294,8.217,8.217,0,0,0,.806-2.417,22.8,22.8,0,0,0,.269-3.784V114.915a24.656,24.656,0,0,0-.269-3.906,7.424,7.424,0,0,0-.806-2.514,2.971,2.971,0,0,0-1.343-1.343,4.212,4.212,0,0,0-1.9-.391,4.319,4.319,0,0,0-1.929.391,3.142,3.142,0,0,0-1.367,1.343,7.424,7.424,0,0,0-.806,2.514,24.656,24.656,0,0,0-.269,3.906v22.142a23.013,23.013,0,0,0,.269,3.784,7.005,7.005,0,0,0,.806,2.417,3.155,3.155,0,0,0,1.367,1.294A4.687,4.687,0,0,0,504.209,144.918Z" transform="translate(-463.586 -100.976)" fill="#2c2c2c"/>
      <path id="Tracciato_979" data-name="Tracciato 979" d="M619.324,102.6h7.47c1.1,0,2.246.049,3.418.122a22.915,22.915,0,0,1,3.442.488,14.561,14.561,0,0,1,3.2,1.1,8.623,8.623,0,0,1,2.637,1.953,9.243,9.243,0,0,1,1.807,3.027,12.716,12.716,0,0,1,.659,4.345V116a11.022,11.022,0,0,1-.562,3.564,10.506,10.506,0,0,1-1.465,2.856,8.7,8.7,0,0,1-2.075,2.051,7.255,7.255,0,0,1-2.393,1.1v.22a7.87,7.87,0,0,1,5.444,3.442,12.687,12.687,0,0,1,1.831,7.1v2.49a16,16,0,0,1-.586,4.59,10.427,10.427,0,0,1-1.636,3.344,8.9,8.9,0,0,1-2.514,2.27,13.489,13.489,0,0,1-3.2,1.392,19.245,19.245,0,0,1-3.711.684c-1.318.122-2.661.2-4.052.2H619.3V102.6Zm8.666,20.824a9.57,9.57,0,0,0,2.71-.366,5.611,5.611,0,0,0,2.1-1.123,4.825,4.825,0,0,0,1.343-1.977,8.02,8.02,0,0,0,.464-2.929v-2a12.456,12.456,0,0,0-.342-3.027,5.465,5.465,0,0,0-1.123-2.222,4.789,4.789,0,0,0-2.051-1.392,8.919,8.919,0,0,0-3.1-.464h-1.416v15.453h1.416Zm.684,22.7a8.5,8.5,0,0,0,2.685-.391,5.648,5.648,0,0,0,2.075-1.2,5.186,5.186,0,0,0,1.343-2.075,8.341,8.341,0,0,0,.464-2.954v-3.784a12.456,12.456,0,0,0-.342-3.027,5.314,5.314,0,0,0-1.123-2.222,4.812,4.812,0,0,0-2.026-1.367,8.682,8.682,0,0,0-3.076-.464h-2.1v17.5h2.1Z" transform="translate(-559.734 -102.185)" fill="#2c2c2c"/>
      <path id="Tracciato_980" data-name="Tracciato 980" d="M733.9,140.106a20.817,20.817,0,0,1,.2-2.881c.122-.879.317-1.831.562-2.856h5.737v2.368a20.828,20.828,0,0,0,.244,3.467,8.394,8.394,0,0,0,.806,2.539,3.689,3.689,0,0,0,1.489,1.562,4.592,4.592,0,0,0,2.27.537,4.288,4.288,0,0,0,3.222-1.147,4.752,4.752,0,0,0,1.123-3.369,13.937,13.937,0,0,0-.146-2.1,9.283,9.283,0,0,0-.537-1.9,13.049,13.049,0,0,0-1.05-1.977,28.07,28.07,0,0,0-1.684-2.319l-7.69-9.155a24.209,24.209,0,0,1-3.174-5.273,14.774,14.774,0,0,1-1.123-5.688,12.392,12.392,0,0,1,.757-4.443,10.052,10.052,0,0,1,2.173-3.491,9.718,9.718,0,0,1,3.515-2.27,13.107,13.107,0,0,1,4.736-.806,13.79,13.79,0,0,1,5.371.9,9.322,9.322,0,0,1,3.442,2.392,8.506,8.506,0,0,1,1.806,3.32,13.736,13.736,0,0,1,.537,3.686,15.1,15.1,0,0,1-.244,2.881c-.171.879-.342,1.855-.562,2.929h-5.688v-2.319a12.491,12.491,0,0,0-1.123-5.932,3.82,3.82,0,0,0-3.613-2.075,3.963,3.963,0,0,0-3.1,1.147,4.524,4.524,0,0,0-1.025,3.1,10.8,10.8,0,0,0,.146,1.855,6.861,6.861,0,0,0,.464,1.514,7.176,7.176,0,0,0,.732,1.343c.293.439.61.9.977,1.367l8.569,10.375a28.722,28.722,0,0,1,3.589,5.859,14.527,14.527,0,0,1,1.245,5.932,12.7,12.7,0,0,1-.806,4.663,9.813,9.813,0,0,1-2.319,3.54,10.4,10.4,0,0,1-3.637,2.246,13.524,13.524,0,0,1-4.809.781,14.882,14.882,0,0,1-5.493-.879,8.555,8.555,0,0,1-5.3-5.639A11.678,11.678,0,0,1,733.9,140.106Z" transform="translate(-646.357 -100.9)" fill="#2c2c2c"/>
      <path id="Tracciato_981" data-name="Tracciato 981" d="M859.364,150.484a18.19,18.19,0,0,1-2.466-.2,10.261,10.261,0,0,1-2.661-.781,9.567,9.567,0,0,1-2.539-1.684,10.438,10.438,0,0,1-2.148-2.881,17.636,17.636,0,0,1-1.489-4.419,31.142,31.142,0,0,1-.562-6.274V117.015a30.8,30.8,0,0,1,.562-6.274,17.738,17.738,0,0,1,1.514-4.394,9.448,9.448,0,0,1,2.173-2.832,9.247,9.247,0,0,1,2.539-1.611,10.478,10.478,0,0,1,2.612-.732,17.04,17.04,0,0,1,2.417-.171,12.791,12.791,0,0,1,4.858.806,8.068,8.068,0,0,1,3.125,2.222,8.623,8.623,0,0,1,1.685,3.3,15.067,15.067,0,0,1,.488,3.979,26.1,26.1,0,0,1-.146,2.881c-.1.879-.269,1.855-.464,2.93H862.88v-2.49a15.558,15.558,0,0,0-.879-6.005,2.843,2.843,0,0,0-2.588-2,3.862,3.862,0,0,0-1.807.391,3.133,3.133,0,0,0-1.294,1.343,8.051,8.051,0,0,0-.781,2.514,24.671,24.671,0,0,0-.269,3.906v22.215a26.969,26.969,0,0,0,.22,3.784,7.1,7.1,0,0,0,.708,2.417,2.833,2.833,0,0,0,1.27,1.294,4.073,4.073,0,0,0,1.9.391,2.966,2.966,0,0,0,2.514-1.343,5.332,5.332,0,0,0,.806-1.758,9.613,9.613,0,0,0,.293-2.514v-4.76h6.762v4.492c0,3.906-.9,6.811-2.685,8.666S862.709,150.46,859.364,150.484Z" transform="translate(-732.225 -100.976)" fill="#2c2c2c"/>
      <path id="Tracciato_982" data-name="Tracciato 982" d="M956.584,102.6h8.5l9.008,48.654h-7.47l-1.343-8.715h-8.886l-1.294,8.715H947.6ZM964.4,137l-3.418-24.241h-.317L957.218,137Z" transform="translate(-807.888 -102.185)" fill="#2c2c2c"/>
      <path id="Tracciato_983" data-name="Tracciato 983" d="M1075.3,102.6h7.373c.928,0,1.953.049,3.052.122a16.087,16.087,0,0,1,3.344.61,12.207,12.207,0,0,1,3.222,1.44,9.7,9.7,0,0,1,2.759,2.637,13.782,13.782,0,0,1,1.929,4.175,21.979,21.979,0,0,1,.732,6.1V119.4a29.351,29.351,0,0,1-.659,6.689,16.908,16.908,0,0,1-1.782,4.663,10.268,10.268,0,0,1-2.588,3.027,11.635,11.635,0,0,1-3.052,1.733,14.918,14.918,0,0,1-3.2.781,26.909,26.909,0,0,1-3.027.2h-.708V151.3h-7.372l-.024-48.7Zm7.739,28.44a8.672,8.672,0,0,0,3.369-.586,4.811,4.811,0,0,0,2.172-1.831,8.755,8.755,0,0,0,1.172-3.2,25.711,25.711,0,0,0,.366-4.687v-4.394a18.523,18.523,0,0,0-.317-3.735,6.242,6.242,0,0,0-1.123-2.612,4.677,4.677,0,0,0-2.173-1.514,9.89,9.89,0,0,0-3.442-.488h-.366V131.04Z" transform="translate(-904.413 -102.185)" fill="#2c2c2c"/>
      <path id="Tracciato_984" data-name="Tracciato 984" d="M1189.9,102.6h18.041v5.81H1197.3v14.55h8.227v5.81H1197.3v16.674h10.937v5.81h-18.309V102.6Z" transform="translate(-991.036 -102.185)" fill="#2c2c2c"/>
      <path id="Tracciato_985" data-name="Tracciato 985" d="M1279,140.106a20.827,20.827,0,0,1,.2-2.881c.122-.879.318-1.831.562-2.856h5.737v2.368a20.844,20.844,0,0,0,.244,3.467,8.41,8.41,0,0,0,.806,2.539,3.69,3.69,0,0,0,1.489,1.562,4.591,4.591,0,0,0,2.27.537,4.289,4.289,0,0,0,3.223-1.147,4.753,4.753,0,0,0,1.123-3.369,13.952,13.952,0,0,0-.146-2.1,9.287,9.287,0,0,0-.537-1.9,13.038,13.038,0,0,0-1.05-1.977,28.034,28.034,0,0,0-1.685-2.319l-7.69-9.155a24.216,24.216,0,0,1-3.174-5.273,14.779,14.779,0,0,1-1.123-5.688,12.392,12.392,0,0,1,.757-4.443,10.048,10.048,0,0,1,2.173-3.491,9.717,9.717,0,0,1,3.515-2.27,13.107,13.107,0,0,1,4.736-.806,13.788,13.788,0,0,1,5.371.9,9.323,9.323,0,0,1,3.442,2.392,8.508,8.508,0,0,1,1.807,3.32,13.743,13.743,0,0,1,.537,3.686,15.082,15.082,0,0,1-.244,2.881c-.171.879-.342,1.855-.562,2.929h-5.688v-2.319a12.491,12.491,0,0,0-1.123-5.932,3.82,3.82,0,0,0-3.613-2.075,3.963,3.963,0,0,0-3.1,1.147,4.524,4.524,0,0,0-1.025,3.1,10.792,10.792,0,0,0,.146,1.855,6.858,6.858,0,0,0,.464,1.514,7.138,7.138,0,0,0,.732,1.343c.293.439.61.9.976,1.367l8.569,10.375a28.715,28.715,0,0,1,3.589,5.859,14.528,14.528,0,0,1,1.245,5.932,12.7,12.7,0,0,1-.806,4.663,9.813,9.813,0,0,1-2.319,3.54,10.4,10.4,0,0,1-3.637,2.246,13.528,13.528,0,0,1-4.81.781,14.88,14.88,0,0,1-5.492-.879,8.555,8.555,0,0,1-5.3-5.639A11.678,11.678,0,0,1,1279,140.106Z" transform="translate(-1058.385 -100.9)" fill="#2c2c2c"/>
    </g>
    <g id="Raggruppa_333" data-name="Raggruppa 333" transform="translate(8.285 2.087)">
      <g id="Raggruppa_332" data-name="Raggruppa 332" transform="translate(0 22.633)">
        <path id="Tracciato_1008" data-name="Tracciato 1008" d="M25.255,103.491a7.135,7.135,0,0,1-3.735-8.447,2.2,2.2,0,0,1-.22-.244h-.269a14.28,14.28,0,0,0-12.694,7.763.534.534,0,0,0,.61.757,14.269,14.269,0,0,1,15.795,5.322,14.143,14.143,0,0,0,.537-3.93A6.753,6.753,0,0,0,25.255,103.491Z" transform="translate(-8.285 -94.8)" fill="#2c2c2c"/>
        <path id="Tracciato_1009" data-name="Tracciato 1009" d="M19.38,165.714a.509.509,0,0,0-.024.732.646.646,0,0,0,.146.122,28.189,28.189,0,0,1,4.052,2.417,14.151,14.151,0,0,0,8.056-6.811A14.226,14.226,0,0,0,19.38,165.714Z" transform="translate(-16.544 -145.55)" fill="#2c2c2c"/>
      </g>
      <path id="Tracciato_1010" data-name="Tracciato 1010" d="M109.515,322.282c-.391-.854-.781-1.733-1.172-2.612.049.684-.366.9-.977.22A28.491,28.491,0,0,0,59.933,326.8c-.586,1.269-1.2.976-.928-.464a89.213,89.213,0,0,0-1.44,9.155,2.188,2.188,0,0,0,1.953,2.392,2.233,2.233,0,0,0,1.416-.342,75.7,75.7,0,0,1,41.477-12.328c1.807,0,3.589.073,5.346.2,1.2.1,1.88-.83,1.953-2.026A1.887,1.887,0,0,0,109.515,322.282Z" transform="translate(-45.526 -234.907)" fill="#a84e47"/>
      <path id="Tracciato_1011" data-name="Tracciato 1011" d="M82.1,21.474h0a1.039,1.039,0,0,0,.269.049c.073.024.146.024.22.049a4.252,4.252,0,0,0,.537.122.09.09,0,0,1,.073.024c.22.049.439.122.659.171h0A28.853,28.853,0,0,1,91.3,25.233a.024.024,0,0,1,.024-.024,28.481,28.481,0,0,1,13.158,22.044,28.5,28.5,0,0,0-8.569-27.171,36.156,36.156,0,0,1,5.322-4.077,1.016,1.016,0,0,0,.317-1.392.975.975,0,0,0-1.147-.415,66.759,66.759,0,0,0-7.348,2.783,35.841,35.841,0,0,1,7.714-6.494.99.99,0,0,0-.83-1.782,70.674,70.674,0,0,0-10.986,4.516,37.67,37.67,0,0,1,4.98-3.784,1.016,1.016,0,0,0,.317-1.392.975.975,0,0,0-1.147-.415,74.566,74.566,0,0,0-7.348,2.783,35.815,35.815,0,0,1,7.69-6.494.99.99,0,0,0-.83-1.782A71.331,71.331,0,0,0,71.063,13.3l-.024.024A28.3,28.3,0,0,0,61.2,24.965h0a28.5,28.5,0,0,1,14.794-4.15A28,28,0,0,1,82.1,21.474Z" transform="translate(-48.282 -2.087)" fill="#2c2c2c"/>
      <path id="Tracciato_1012" data-name="Tracciato 1012" d="M68.3,168.364l-.1.342a33.709,33.709,0,0,1-1.269,4.663l-.073.2c-.049.146-.122.317-.171.464-.122.293-.22.61-.342.9-.073.244-.171.464-.244.708-.073.22-.171.464-.244.684-.073.244-.171.513-.244.757l-.22.659c-.073.269-.171.513-.244.781-.073.22-.122.439-.2.635-.073.269-.146.513-.244.781a6.114,6.114,0,0,0-.171.635l-.22.806c-.049.22-.122.439-.171.635l-.22.806c-.122.439-.22.9-.317,1.343-.049.244-.122.488-.171.732s-.122.488-.171.732c-.024.073-.024.122-.049.2,0,.049-.024.073-.024.122-.269,1.44.342,1.733.928.464a28.491,28.491,0,0,1,47.433-6.909c.61.684,1.025.464.977-.22a2.662,2.662,0,0,0-.2-.757,86.668,86.668,0,0,1-6.372-28.587c.024.415-.122.439-.171-.22-.049-.415-.1-.806-.146-1.221-.024-.146-.049-.269-.073-.415-.049-.269-.073-.537-.122-.781-.024-.171-.073-.317-.1-.488-.049-.244-.1-.464-.146-.708-.049-.171-.073-.342-.122-.513a6.535,6.535,0,0,0-.171-.659c-.049-.171-.1-.342-.146-.537s-.122-.415-.171-.61c-.049-.171-.122-.366-.171-.537-.073-.2-.122-.391-.2-.586a4.747,4.747,0,0,1-.2-.537c-.073-.2-.146-.366-.22-.561-.073-.171-.146-.366-.22-.537a5.228,5.228,0,0,0-.244-.537,5.505,5.505,0,0,0-.269-.537c-.073-.171-.171-.342-.244-.513-.1-.171-.2-.366-.293-.537s-.171-.317-.269-.488a6.177,6.177,0,0,0-.317-.537,4.537,4.537,0,0,1-.269-.464c-.122-.171-.22-.366-.342-.537l-.293-.439-.366-.513c-.1-.146-.2-.293-.293-.415-.122-.171-.269-.342-.391-.513a4.458,4.458,0,0,0-.317-.391c-.146-.171-.269-.342-.415-.513-.1-.122-.22-.244-.317-.366l-.439-.513a4.357,4.357,0,0,0-.317-.342,4.607,4.607,0,0,0-.488-.488,3.9,3.9,0,0,0-.317-.317c-.171-.171-.342-.317-.513-.488a4.25,4.25,0,0,0-.342-.293c-.171-.171-.366-.317-.537-.464a3.281,3.281,0,0,0-.342-.269c-.2-.146-.366-.317-.561-.464a4.175,4.175,0,0,0-.342-.269l-.586-.439a2.769,2.769,0,0,1-.317-.244c-.22-.146-.415-.293-.635-.439-.1-.073-.22-.146-.317-.22-.22-.146-.439-.269-.659-.415-.1-.073-.22-.122-.317-.2-.22-.146-.464-.269-.684-.391-.1-.049-.2-.122-.317-.171-.244-.122-.488-.269-.732-.391l-.293-.146c-.244-.122-.513-.244-.757-.366-.1-.049-.2-.073-.293-.122-.269-.122-.537-.22-.806-.342-.1-.024-.171-.073-.269-.1-.269-.1-.561-.22-.854-.317-.073-.024-.171-.049-.244-.073l-.879-.293a.755.755,0,0,0-.2-.049c-.317-.1-.635-.2-.952-.269a1.553,1.553,0,0,0-.171-.049c-.342-.073-.659-.171-1-.244-.024,0-.073-.024-.1-.024l-1.1-.22h0a3.958,3.958,0,0,1-.391,1.1,4.86,4.86,0,0,1-1.245,1.514,6.231,6.231,0,0,1-7.665,0,4.86,4.86,0,0,1-1.245-1.514,5.2,5.2,0,0,1-.342-.854h0c-.269.049-.537.122-.781.171-.024,0-.049.024-.073.024l-.806.22a1.762,1.762,0,0,0-.488.22,1.817,1.817,0,0,0-.586,2.49,7.127,7.127,0,0,0,5.761,3.3h0a14.233,14.233,0,0,1,3.442,27.928h0a14.242,14.242,0,0,0-9.618,9.716" transform="translate(-49.743 -94.465)" fill="#2c2c2c"/>
      <path id="Tracciato_1013" data-name="Tracciato 1013" d="M85.6,284.7" transform="translate(-66.725 -215.707)" fill="#2c2c2c"/>
      <path id="Tracciato_1014" data-name="Tracciato 1014" d="M86.113,115.936c0-.146-.024-.317-.024-.464-.024-.537-.049-1.074-.049-1.636v-.586c0-.537-.024-1.05-.024-1.587v-.146c0-.684,0-1.343.024-2v-2.026A28.509,28.509,0,0,0,57.526,79a28.619,28.619,0,0,0-14.77,4.126l.049.049a7.083,7.083,0,0,0,2.783,7.812,1.04,1.04,0,0,1,.293.269,2.287,2.287,0,0,1,.61,1.147,1.848,1.848,0,0,1,.024.366h0a14.222,14.222,0,0,1-1.172,5.639.731.731,0,0,1-.1.2c-.049.122-.122.244-.171.391-.1.22-.22.415-.317.635a14.16,14.16,0,0,1-7.958,6.64,23.567,23.567,0,0,1,2.295,1.831,28.537,28.537,0,0,1,9.228,26.268s-.024.342.073-.024a14.288,14.288,0,0,1,9.618-9.716h0A14.233,14.233,0,0,0,54.572,96.7h0a7.092,7.092,0,0,1-5.761-3.3,1.791,1.791,0,0,1,.586-2.49,1.762,1.762,0,0,1,.488-.22l.806-.22c.024,0,.049-.024.073-.024.269-.073.513-.122.781-.171h0a3.677,3.677,0,0,0,.342.854,4.859,4.859,0,0,0,1.245,1.514,6.231,6.231,0,0,0,7.665,0,4.859,4.859,0,0,0,1.245-1.514,4.2,4.2,0,0,0,.391-1.1h0l1.1.22c.024,0,.073.024.1.024.342.073.684.146,1,.244a1.554,1.554,0,0,0,.171.049c.317.073.635.171.952.269a.755.755,0,0,0,.2.049l.879.293c.073.024.171.049.244.073.293.1.561.2.854.317.1.024.171.073.269.1.269.1.537.22.806.342.1.049.2.073.293.122.269.122.513.244.757.366l.293.146c.244.122.488.244.732.391.1.049.2.122.317.171.244.122.464.269.684.391.1.073.22.122.317.2.22.146.439.269.659.415.1.073.22.146.317.22.22.146.415.293.635.439a1.568,1.568,0,0,1,.317.244l.586.439a3.279,3.279,0,0,1,.342.269,5.15,5.15,0,0,1,.561.464,3.28,3.28,0,0,0,.342.269c.171.146.366.317.537.464.122.1.22.2.342.293.171.171.342.317.513.488a3.891,3.891,0,0,1,.317.317l.488.488a4.36,4.36,0,0,0,.317.342l.439.513c.1.122.22.244.317.366.146.171.293.342.415.513.1.122.22.269.317.391.122.171.269.342.391.513.1.146.2.269.293.415l.366.513.293.439c.122.171.22.342.342.537a4.536,4.536,0,0,1,.269.464c.1.171.22.342.317.537.1.171.171.317.269.488s.2.366.293.537a4.883,4.883,0,0,1,.244.513c.1.171.171.366.269.537a5.225,5.225,0,0,0,.244.537c.073.171.146.366.22.537.073.2.146.366.22.561a4.752,4.752,0,0,1,.2.537,5.5,5.5,0,0,1,.2.586c.049.171.122.366.171.537a5.7,5.7,0,0,1,.171.61c.049.171.1.342.146.537a6.544,6.544,0,0,0,.171.659,3.9,3.9,0,0,1,.122.513c.049.22.1.464.146.708.024.171.073.317.1.488.049.269.1.537.122.781.024.146.049.269.073.415.049.391.1.806.146,1.221.049.659.146.83.2.513Zm-25.9-24.315a2.1,2.1,0,0,1-.439.342c-.146.1-.317.2-.488.293a4.961,4.961,0,0,1-2.344.561,2.652,2.652,0,0,1-.439-.024c-.049,0-.1-.024-.171-.024-.1,0-.171-.024-.269-.024a.46.46,0,0,1-.2-.049c-.073-.024-.146-.024-.22-.049l-.22-.073c-.049-.024-.122-.024-.171-.049-.073-.024-.171-.073-.244-.1-.049-.024-.1-.024-.122-.049-.1-.049-.171-.073-.269-.122-.024-.024-.073-.024-.1-.049a1.641,1.641,0,0,1-.269-.171c-.024-.024-.049-.024-.073-.049a2.557,2.557,0,0,1-.269-.2l-.024-.024-.024-.024c-.073-.073-.171-.146-.244-.22L53.6,91.5a2.431,2.431,0,0,1-.244-.269h0a3.312,3.312,0,0,1-.806-1.977h0v-.122c0-2,1.977-3.637,4.394-3.637A4.6,4.6,0,0,1,60.9,87.52a1.475,1.475,0,0,0-.586.122c-.024,0-.024.024-.049.024l-.146.073a.024.024,0,0,0-.024.024,1.681,1.681,0,0,0-.317.269l-.024.024a.438.438,0,0,0-.122.171h0a.611.611,0,0,0-.1.171c0,.024-.024.024-.024.049-.024.073-.049.122-.073.2h0c-.024.073-.024.146-.049.2v.049c0,.073-.024.146-.024.22a1.616,1.616,0,0,0,1.562,1.611l-.146.22a5.368,5.368,0,0,1-.488.562A.544.544,0,0,1,60.211,91.621Z" transform="translate(-29.839 -60.224)" fill="#f5f5f5"/>
      <path id="Tracciato_1015" data-name="Tracciato 1015" d="M107.911,109.613a.676.676,0,0,1,.024-.22v-.049a.46.46,0,0,1,.049-.2h0c.024-.073.049-.122.073-.2,0-.024.024-.024.024-.049a1.062,1.062,0,0,1,.1-.171h0c.049-.049.073-.122.122-.171l.024-.024a1.681,1.681,0,0,1,.317-.269.024.024,0,0,0,.024-.024.73.73,0,0,1,.2-.1,1.678,1.678,0,0,1,.586-.122A4.569,4.569,0,0,0,105.494,106c-2.441,0-4.394,1.611-4.394,3.637v.122h0a3.169,3.169,0,0,0,.806,1.977h0c.073.1.171.171.244.269l.024.024a2.675,2.675,0,0,0,.269.244l.024.024a1.863,1.863,0,0,0,.269.2c.024.024.049.024.073.049.1.049.171.122.269.171.024.024.073.024.1.049a.9.9,0,0,0,.269.122c.049.024.1.024.122.049.073.024.171.073.244.1.049.024.122.024.171.049l.22.073c.073.024.146.024.22.049s.146.024.2.049a1,1,0,0,0,.269.024c.049,0,.1.024.171.024.146,0,.293.024.439.024a4.961,4.961,0,0,0,2.344-.561c.171-.1.342-.2.488-.293a5.365,5.365,0,0,0,.439-.342,4.185,4.185,0,0,0,.537-.61l.146-.22A1.735,1.735,0,0,1,107.911,109.613Z" transform="translate(-78.442 -80.632)" fill="#2c2c2c"/>
    </g>
  </g>
</svg>
