<svg xmlns="http://www.w3.org/2000/svg" xmlns:xlink="http://www.w3.org/1999/xlink" width="390" height="844" viewBox="0 0 390 844"><defs><linearGradient id="a" x1="0.22" y1="0.023" x2="0.956" y2="0.846" gradientUnits="objectBoundingBox"><stop offset="0" stop-color="#fee33d"/><stop offset="1" stop-color="#e39e50"/></linearGradient><linearGradient id="b" x1="0.785" y1="0.59" x2="0.417" y2="0.063" gradientUnits="objectBoundingBox"><stop offset="0" stop-color="#fcd223"/><stop offset="0.256" stop-color="#fcd223"/><stop offset="1" stop-color="#fca04f"/></linearGradient><clipPath id="d"><rect width="390" height="844"/></clipPath></defs><g id="c" clip-path="url(#d)"><rect width="390" height="844" fill="url(#a)"/><path d="M-56.554,1497.247a1231.747,1231.747,0,0,1-8.975-123.525q-.188-1.77-.276-3.782c-.152-.659.1-1.065-.051-1.724.1-1.065-.05-1.724.051-2.788-.1-3.447.127-6.97.025-10.417s.128-6.97.026-10.417c-.05-6.235-.177-12.8.1-19.111q.229-5.778.457-11.557c.05-2.788.355-5.982.33-9.1l.456-11.558a84.709,84.709,0,0,1,.33-9.1c.481-3.928.71-7.452.862-11.3.381-2.865.356-5.981.66-9.176.152-3.852.71-7.451.863-11.3l.913-9.58c.229-3.523.71-7.452.939-10.975.3-3.194.862-6.793,1.167-9.986.228-3.523.862-6.792,1.091-10.316.735-4.334,1.065-8.922,1.8-13.256.2-2.128.659-4.663.862-6.792l.381-2.864a466.7,466.7,0,0,0,2.614-66.887l.061-1.181c-.023-.131-.036-.213-.036-.213A395.13,395.13,0,0,0-258.358,794.6a326.664,326.664,0,0,0-36.693-17.555l.124-.075a390.316,390.316,0,0,0-61.643-19.732,8.953,8.953,0,0,1-2.357-1.19,7.041,7.041,0,0,1-1.953-9.96,197.228,197.228,0,0,1,153.142-85.856c.591-2.39,1.3-4.708,1.776-7.169.2-2.128.811-4.005,1.09-5.8a10.13,10.13,0,0,0,.711-2.94A200.882,200.882,0,0,0-201,614.542,197.824,197.824,0,0,0-426.5,595.7a7.644,7.644,0,0,1-5.426.558,7.679,7.679,0,0,1-5.173-8.87A197.919,197.919,0,0,1-289.867,443.044l2.885-.666a392.292,392.292,0,0,1,94.755-179.4l.254-.4A988.788,988.788,0,0,1,64.356,44.8,13.713,13.713,0,0,1,81.118,66.263,496.3,496.3,0,0,0-2.493,177.876a1033.674,1033.674,0,0,1,90.557-60.467,13.523,13.523,0,0,1,16.787,2.023,14.061,14.061,0,0,1,.05,19.769,522.072,522.072,0,0,0-55.461,66.594,979.724,979.724,0,0,1,134.276-95.2,13.712,13.712,0,0,1,16.761,21.463,496.646,496.646,0,0,0-83.939,111.689,925.841,925.841,0,0,1,90.556-60.468,13.525,13.525,0,0,1,16.788,2.024,14.061,14.061,0,0,1,.049,19.769,501.1,501.1,0,0,0-59.163,71.613c116.1,65.882,195.434,188.408,200.166,330.508q4.956,16.385,8.746,32.812l6.313,27.346c1.724,8.971,3.777,17.867,5.907,27.092l.456,1.977c1.674,7.249,3.6,14.091,5.274,21.339q.914,3.954,1.826,7.907c1.75,7.578,3.752,14.75,5.755,21.922.456,1.977,1.319,4.207,1.775,6.184l.406.253c.093,1.258.012,2-.216,2.214,36.984,127.647,96.127,251.989,173.5,360.335a36.881,36.881,0,0,1,5,9.6,13.167,13.167,0,0,1,.645,6.02,11.934,11.934,0,0,0-.468-6.756c8.013,10.643,16.026,21.287,23.963,31.6a26.127,26.127,0,0,1,6.061,14.217c2.738,16.372-3.6,31.023-20.059,33.434-24.116,3.832-48.41,8.4-72.8,14.032A1049.539,1049.539,0,0,0-4.671,1514.419a30.959,30.959,0,0,1-18.056,9.027,30.375,30.375,0,0,1-3.8.239A30.324,30.324,0,0,1-56.554,1497.247Zm4.721-123.939q-.147.7-.3,1.371.252-1.006.482-2.106a398.108,398.108,0,0,1,11.135-42.458A391.475,391.475,0,0,0-51.834,1373.308ZM48.625,958.666A197.776,197.776,0,0,0,28.046,972.16a197.98,197.98,0,0,1,20-13.013,195.93,195.93,0,0,0,77.246-76.139A196.8,196.8,0,0,1,48.625,958.666Zm205.823-404.96c1.7,1.343,3.727,2.61,5.426,3.953,2.51,1.849,4.691,3.775,7.2,5.625a61.877,61.877,0,0,1,5.5,4.282c2.181,1.926,4.691,3.776,6.871,5.7,1.7,1.343,3.474,3.015,5.249,4.687l6.543,5.777,5.324,5.017c2.181,1.926,4.109,4.257,6.289,6.183a62.912,62.912,0,0,0,5.072,5.422,85.674,85.674,0,0,1,5.959,6.259c1.851,2,3.3,3.75,5.147,5.753s3.778,4.333,5.63,6.335c1.522,2.077,3.372,4.08,4.894,6.158a76.272,76.272,0,0,1,5.3,6.411,72.493,72.493,0,0,1,4.97,6.487c1.521,2.078,3.118,4.486,4.64,6.564,1.6,2.408,3.118,4.485,4.716,6.892a65.605,65.605,0,0,0,4.311,6.64c1.6,2.407,2.866,4.891,4.463,7.3,1.192,2.154,2.789,4.561,3.981,6.716,1.268,2.483,2.941,5.22,4.209,7.7s2.46,4.638,3.651,6.791a90.394,90.394,0,0,1,4.361,8.363c1.192,2.154,2.054,4.384,3.245,6.538,1.42,3.142,2.764,5.955,4.184,9.1.862,2.23,1.977,4.055,2.84,6.285,1.42,3.142,2.587,6.691,4.082,10.163.787,1.9,1.5,3.471,2.282,5.372,1.952,5.449,3.829,10.568,5.781,16.017,1.443,4.65,2.656,6.6,3.232,6.584a48.585,48.585,0,0,1-2.648-7.067c-1.953-5.449-3.905-10.9-5.782-16.016-.786-1.9-1.5-3.472-2.281-5.373-1.091-3.218-2.587-6.691-4.082-10.162-.862-2.23-1.978-4.055-2.84-6.286-1.42-3.142-2.84-6.285-4.184-9.1a53.9,53.9,0,0,0-3.245-6.538,90.742,90.742,0,0,1-4.361-8.363c-1.267-2.484-2.46-4.638-3.651-6.792a78.709,78.709,0,0,0-4.209-7.7c-1.192-2.155-2.789-4.562-3.981-6.716a76.084,76.084,0,0,0-4.463-7.3,65.852,65.852,0,0,0-4.31-6.639c-1.6-2.407-3.119-4.486-4.717-6.892-1.521-2.078-3.118-4.486-4.64-6.564a72.157,72.157,0,0,1-4.97-6.487c-1.851-2-3.449-4.409-5.3-6.412a67.672,67.672,0,0,0-4.893-6.158c-1.851-2-3.779-4.333-5.63-6.334s-3.3-3.751-5.148-5.753c-1.927-2.331-4.108-4.257-5.959-6.259a62.778,62.778,0,0,0-5.072-5.422c-2.256-2.255-4.108-4.257-6.288-6.183l-5.325-5.018-6.542-5.777c-1.775-1.672-3.474-3.015-5.249-4.688-2.181-1.925-4.692-3.775-6.872-5.7-1.7-1.343-3.8-2.939-5.5-4.282-2.181-1.926-4.691-3.776-7.2-5.625-1.7-1.343-3.728-2.61-5.426-3.953-.215-.158-.571-.1-1.045.141Zm-410.222-33.694c-.329.077-.583.482-.913.558l-10.194,5.477a26.061,26.061,0,0,0-4.279,2.942,26.43,26.43,0,0,1,3.7-2.459l10.194-5.477c.33-.076.584-.482.913-.557,3.145-1.42,6.542-3.246,10.016-4.742q.4.656.8,1.31a3.141,3.141,0,0,0-.219-1.792C-149.232,516.767-152.375,518.187-155.774,520.012Zm140.68-13.639-.029.006C-15.119,506.414-15.109,506.413-15.094,506.372ZM.566,478.494l.811-.024-.866-.439A3.149,3.149,0,0,0,.566,478.494Zm15.578-.428a3.1,3.1,0,0,0,.653.021,7.333,7.333,0,0,0-.766-.515c-.531.016-.752.189-.727.487l.143,0a1,1,0,0,1,.221-.02C15.81,478.034,15.977,478.05,16.144,478.066Zm-61.054-6.5c.319-.069.495-.124.486-.16.028-.117-.146-.241-.459-.37C-44.9,471.2-44.908,471.381-44.91,471.562Zm.538-2.949a.277.277,0,0,0-.125-.222l-.034.222Z" transform="translate(150.849 28.451)" fill="url(#b)"/></g></svg>