<svg enable-background="new 0 0 390 844" viewBox="0 0 390 844" xmlns="http://www.w3.org/2000/svg"
    xmlns:xlink="http://www.w3.org/1999/xlink">
    <clipPath id="a">
        <path d="m0 0h390v844h-390z" />
    </clipPath>
    <linearGradient id="b" gradientTransform="matrix(390 0 0 -844 -31509 415372.0625)" gradientUnits="userSpaceOnUse"
        x1="80.9309" x2="81.6669" y1="492.0511" y2="491.2281">
        <stop offset="0" stop-color="#fee33d" />
        <stop offset="1" stop-color="#c2741d" />
    </linearGradient>
    <linearGradient id="c" gradientTransform="matrix(1047.7527 0 0 -1485.8699 -85083.375 731007.25)"
        gradientUnits="userSpaceOnUse" x1="81.4404" x2="81.3224" y1="491.3191" y2="491.8561">
        <stop offset="0" stop-color="#fcd223" />
        <stop offset="1" stop-color="#d87e3f" />
    </linearGradient>
    <path clip-path="url(#a)" d="m0 0h390v844h-390z" fill="url(#b)" />
    <path clip-path="url(#a)"
        d="m84.3 1466.5c-5.1-41-8.1-82.2-9-123.5-.1-1.2-.2-2.4-.3-3.8-.2-.7.1-1.1-.1-1.7.1-1.1-.1-1.7.1-2.8-.1-3.4.1-7 0-10.4s.1-7 0-10.4c-.1-6.2-.2-12.8.1-19.1.2-3.9.3-7.7.5-11.6.1-2.8.4-6 .3-9.1l.5-11.6c-.1-3 .1-6.1.3-9.1.5-3.9.7-7.5.9-11.3.4-2.9.4-6 .7-9.2.2-3.9.7-7.5.9-11.3l.9-9.6c.2-3.5.7-7.5.9-11 .3-3.2.9-6.8 1.2-10 .2-3.5.9-6.8 1.1-10.3.7-4.3 1.1-8.9 1.8-13.3.2-2.1.7-4.7.9-6.8l.4-2.9c2.5-22.2 3.3-44.6 2.6-66.9l.1-1.2c0-.1 0-.2 0-.2-7.7-136.9-85.9-260.2-206.6-325.5-11.9-6.6-24.1-12.5-36.7-17.6l.1-.1c-20-8.3-40.6-14.9-61.6-19.7-.8-.3-1.6-.7-2.4-1.2-3.3-2.1-4.2-6.5-2.1-9.7 0-.1.1-.2.2-.2 34.8-51 91.5-82.8 153.1-85.9.6-2.4 1.3-4.7 1.8-7.2.2-2.1.8-4 1.1-5.8.4-.9.6-1.9.7-2.9 1.8-9.8 2.8-19.8 3.2-29.8-63.9-52.9-153.9-60.4-225.6-18.8-1.7.8-3.6 1-5.4.6-3.7-1.2-6-5-5.2-8.9 18.2-71.9 75-127.6 147.2-144.3l3.6-.8.2.1c14.8-69 47.9-132.6 95.8-184.4l.3-.4c72.5-86.8 159.2-160.4 256.4-217.8 6.5-3.9 14.9-1.9 18.8 4.6 3.3 5.4 2.4 12.4-2.1 16.8-33 33.1-61.1 70.7-83.6 111.6 29.1-21.7 59.3-41.9 90.6-60.5 5.4-3.3 12.4-2.5 16.8 2 5.4 5.5 5.4 14.3 0 19.8-20.3 20.6-38.9 42.9-55.5 66.6 42-35.4 86.9-67.3 134.3-95.2 6.5-3.9 14.9-1.9 18.8 4.6 3.3 5.4 2.4 12.4-2.1 16.8-33 33.2-61.2 70.8-83.8 111.8 29-21.9 59.2-42.1 90.6-60.5 5.4-3.3 12.4-2.5 16.8 2 5.4 5.5 5.5 14.3 0 19.8-21.9 22-41.7 46-59.2 71.6 118.7 67.3 198.9 193.9 200.4 340-3.5-11.5-7.5-22.8-12.1-33.9 7.5 20.3 13.7 41.1 18.6 62.2l6.3 27.3c1.7 9 3.8 17.9 5.9 27.1l.5 2c1.7 7.2 3.6 14.1 5.3 21.3.6 2.6 1.2 5.3 1.8 7.9 1.8 7.6 3.8 14.8 5.8 21.9.5 2 1.3 4.2 1.8 6.2l.4.3c.1 1.3 0 2-.2 2.2 37 127.6 96.1 252 173.5 360.3 2.1 2.9 3.8 6.2 5 9.6.7 1.9.9 4 .6 6 .5-2.2.3-4.6-.5-6.8 8 10.6 16 21.3 24 31.6 3.4 4 5.5 9 6.1 14.2 2.7 16.4-3.6 31-20.1 33.4-24.1 3.8-48.4 8.4-72.8 14-199 45.7-380.3 148.5-521.7 295.7-4.8 4.9-11.2 8.1-18.1 9-1.3.2-2.5.2-3.8.2-15.2.3-28.1-11-30-26.1zm4.7-123.9c-.1.5-.2.9-.3 1.4.2-.7.3-1.4.5-2.1 2.9-14.3 6.6-28.5 11.1-42.5-4.6 14.2-8.3 28.6-11.3 43.2zm100.5-414.7c-7.1 4.1-14 8.6-20.6 13.5 6.4-4.7 13.1-9.1 20-13 32.4-17.6 59.2-44 77.2-76.1-18 31.8-44.5 58-76.6 75.6zm205.8-404.9c1.7 1.3 3.7 2.6 5.4 4 2.5 1.8 4.7 3.8 7.2 5.6 1.9 1.3 3.7 2.8 5.5 4.3 2.2 1.9 4.7 3.8 6.9 5.7 1.7 1.3 3.5 3 5.2 4.7l6.5 5.8 5.3 5c2.2 1.9 4.1 4.3 6.3 6.2 1.6 1.9 3.3 3.7 5.1 5.4 2.1 2 4.1 4.1 6 6.3 1.9 2 3.3 3.8 5.1 5.8s3.8 4.3 5.6 6.3c1.5 2.1 3.4 4.1 4.9 6.2 1.9 2 3.7 4.2 5.3 6.4 1.8 2.1 3.4 4.2 5 6.5 1.5 2.1 3.1 4.5 4.6 6.6 1.6 2.4 3.1 4.5 4.7 6.9 1.3 2.3 2.7 4.5 4.3 6.6 1.6 2.4 2.9 4.9 4.5 7.3 1.2 2.2 2.8 4.6 4 6.7 1.3 2.5 2.9 5.2 4.2 7.7s2.5 4.6 3.7 6.8c1.6 2.7 3.1 5.5 4.4 8.4 1.2 2.2 2.1 4.4 3.2 6.5 1.4 3.1 2.8 6 4.2 9.1.9 2.2 2 4.1 2.8 6.3 1.4 3.1 2.6 6.7 4.1 10.2.8 1.9 1.5 3.5 2.3 5.4 2 5.4 3.8 10.6 5.8 16 1.4 4.7 2.7 6.6 3.2 6.6-1.1-2.3-1.9-4.6-2.6-7.1-2-5.4-3.9-10.9-5.8-16-.8-1.9-1.5-3.5-2.3-5.4-1.1-3.2-2.6-6.7-4.1-10.2-.9-2.2-2-4.1-2.8-6.3-1.4-3.1-2.8-6.3-4.2-9.1-.9-2.3-2-4.4-3.2-6.5-1.6-2.7-3.1-5.5-4.4-8.4-1.3-2.5-2.5-4.6-3.7-6.8-1.3-2.6-2.7-5.2-4.2-7.7-1.2-2.2-2.8-4.6-4-6.7-1.3-2.5-2.8-5-4.5-7.3-1.3-2.3-2.7-4.5-4.3-6.6-1.6-2.4-3.1-4.5-4.7-6.9-1.5-2.1-3.1-4.5-4.6-6.6-1.8-2.1-3.4-4.2-5-6.5-1.9-2-3.4-4.4-5.3-6.4-1.5-2.1-3.1-4.2-4.9-6.2-1.9-2-3.8-4.3-5.6-6.3s-3.3-3.8-5.1-5.8c-1.9-2.3-4.1-4.3-6-6.3-1.6-1.9-3.3-3.7-5.1-5.4-2.3-2.3-4.1-4.3-6.3-6.2l-5.3-5-6.5-5.8c-1.8-1.7-3.5-3-5.2-4.7-2.2-1.9-4.7-3.8-6.9-5.7-1.7-1.3-3.8-2.9-5.5-4.3-2.2-1.9-4.7-3.8-7.2-5.6-1.7-1.3-3.7-2.6-5.4-4-.2-.2-.6-.1-1 .1zm-410.2-33.7c-.3.1-.6.5-.9.6l-10.2 5.5c-1.5.8-3 1.8-4.3 2.9 1.2-.9 2.4-1.7 3.7-2.5l10.2-5.5c.3-.1.6-.5.9-.6 3.1-1.4 6.5-3.2 10-4.7.3.4.5.9.8 1.3.1-.6 0-1.2-.2-1.8-3.5 1.5-6.6 3-10 4.8zm140.7-13.7c-.1.1-.1.1 0 0zm15.6-27.8h.8l-.9-.4c.1.1.1.2.1.4zm15.6-.5h.7c-.2-.2-.5-.4-.8-.5-.5 0-.8.2-.7.5h.1.2zm-61.1-6.5c.3-.1.5-.1.5-.2s-.1-.2-.5-.4zm.6-2.9c0-.1 0-.2-.1-.2v.2zm-239.9-24.9c3.9-3.7 7.8-7.5 11.8-11.2-4.1 3.6-8.1 7.3-12 11.1z"
        fill="url(#c)" />
</svg>