<svg xmlns="http://www.w3.org/2000/svg" width="17.892" height="17.901" viewBox="0 0 17.892 17.901"><g transform="translate(-22.014 26.98)"><path d="M29.744-12.417c.357.692.685,1.325,1.01,1.959a.937.937,0,0,1,.074.933A.789.789,0,0,1,29.4-9.55c-.521-.92-1.011-1.858-1.5-2.8a1.038,1.038,0,0,0-.633-.556,7.737,7.737,0,0,1-5.255-7.314c0-.812.34-1.167,1.164-1.17,1.775-.006,3.551,0,5.326,0,.962,0,1.368-.394,1.353-1.366a3.909,3.909,0,0,1,2.065-3.754A3.91,3.91,0,0,1,37.3-24.732a1.47,1.47,0,0,0,.634.7q.789.454,1.557.942c.542.344.546.779.01,1.122-.485.31-.974.617-1.478.893a.624.624,0,0,0-.354.632,7.819,7.819,0,0,1-1.906,5.28,7.643,7.643,0,0,1-2.46,1.893c-.55.264-.547.269-.251.827.372.7.756,1.4,1.111,2.1a.773.773,0,0,1-.222,1.077.728.728,0,0,1-.982-.03,1.584,1.584,0,0,1-.316-.456c-.431-.792-.876-1.579-1.27-2.389a.586.586,0,0,0-.728-.381C30.377-12.465,30.1-12.453,29.744-12.417Zm-3.387-7.312c-.778,0-1.556.009-2.334,0-.278,0-.328.077-.288.351a6.137,6.137,0,0,0,5.741,5.269,6.164,6.164,0,0,0,6.3-4.53,13.786,13.786,0,0,0,.171-4.824,2.023,2.023,0,0,0-1.762-1.811,2.136,2.136,0,0,0-2.246.9,2.461,2.461,0,0,0-.427,1.543,2.826,2.826,0,0,1-3.146,3.1Z" transform="translate(0 0)" fill="#7d6042"/><path d="M139.873,8.952a.82.82,0,1,1-.794.859A.839.839,0,0,1,139.873,8.952Z" transform="translate(-106.125 -32.575)" fill="#7d6042"/></g></svg>