<svg xmlns="http://www.w3.org/2000/svg" width="48.926" height="27.419" viewBox="0 0 48.926 27.419">
    <g transform="translate(48.926 27.419) rotate(180)">
        <rect width="10" height="6" transform="translate(38.926 21.419)" fill="none" />
        <g transform="translate(0.162 0.184)">
            <path
                d="M12.312,25.867.9,14.452a1,1,0,0,1-.893-.9,1.035,1.035,0,0,1,.009-1.14,1,1,0,0,1,.8-.822q.032-.027.065-.051L12.312.11a1,1,0,0,1,1.414,0l.625.626a1,1,0,0,1,0,1.414L4.927,11.574H29.764a1,1,0,0,1,1,1v.884a1,1,0,0,1-1,1H4.981l9.371,9.371a1,1,0,0,1,0,1.414l-.625.625a1,1,0,0,1-1.414,0Z"
                transform="translate(0 0)" fill="#552d00" />
        </g>
    </g>
</svg>