<svg width="32" height="27" viewBox="0 0 32 27" fill="none" xmlns="http://www.w3.org/2000/svg">
<path d="M19.2701 0.659014L30.6821 12.074C30.912 12.0977 31.1266 12.2003 31.2894 12.3644C31.4522 12.5285 31.5532 12.7439 31.5751 12.974C31.6853 13.144 31.7433 13.3427 31.7417 13.5454C31.7401 13.748 31.679 13.9457 31.5661 14.114C31.5332 14.3166 31.4387 14.5041 31.2956 14.6511C31.1525 14.7982 30.9676 14.8976 30.7661 14.936C30.7447 14.954 30.7231 14.971 30.7011 14.987L19.2701 26.416C19.0825 26.6035 18.8282 26.7088 18.5631 26.7088C18.2979 26.7088 18.0436 26.6035 17.8561 26.416L17.2311 25.79C17.0436 25.6025 16.9383 25.3482 16.9383 25.083C16.9383 24.8179 17.0436 24.5635 17.2311 24.376L26.6551 14.952L1.81806 14.952C1.55285 14.952 1.29849 14.8467 1.11095 14.6591C0.923418 14.4716 0.818062 14.2172 0.818062 13.952V13.068C0.818062 12.8028 0.923418 12.5484 1.11095 12.3609C1.29849 12.1734 1.55285 12.068 1.81806 12.068L26.6011 12.068L17.2301 2.69701C17.0426 2.50949 16.9373 2.25518 16.9373 1.99002C16.9373 1.72485 17.0426 1.47054 17.2301 1.28301L17.8551 0.658014C18.0426 0.470543 18.2969 0.365229 18.5621 0.365229C18.8272 0.365229 19.0815 0.470543 19.2691 0.658014L19.2701 0.659014Z" fill="#552D00"/>
</svg>
